<svg width="184" height="67" viewBox="0 0 184 67" fill="none" xmlns="http://www.w3.org/2000/svg">
<path d="M153.364 0.278076L169.569 0.278076L183.811 24.5044L169.569 48.7308H153.364L167.606 24.5044L153.364 0.278076Z" fill="#86BCFF"/>
<path d="M128.245 49.0524C123.057 49.0524 118.524 48.0567 114.645 46.0652C110.767 44.0214 107.754 41.1652 105.605 37.4968C103.509 33.7759 102.461 29.4262 102.461 24.4476C102.461 19.469 103.509 15.1454 105.605 11.477C107.754 7.80855 110.767 4.9786 114.645 2.98716C118.524 0.995717 123.083 0 128.323 0C133.564 0 138.071 0.995717 141.844 2.98716C145.67 4.9786 148.631 7.80855 150.727 11.477C152.823 15.1454 153.872 19.4952 153.872 24.5262C153.872 29.5048 152.823 33.8545 150.727 37.5754C148.631 41.2438 145.67 44.0738 141.844 46.0652C138.019 48.0567 133.486 49.0524 128.245 49.0524ZM128.245 36.4748C131.861 36.4748 134.612 35.4005 136.499 33.2519C138.438 31.0508 139.407 28.116 139.407 24.4476C139.407 20.7791 138.438 17.8968 136.499 15.8005C134.612 13.6519 131.861 12.5775 128.245 12.5775C124.576 12.5775 121.773 13.6519 119.834 15.8005C117.895 17.8968 116.925 20.7791 116.925 24.4476C116.925 28.116 117.895 31.0508 119.834 33.2519C121.773 35.4005 124.576 36.4748 128.245 36.4748Z" fill="#86BCFF"/>
<path fill-rule="evenodd" clip-rule="evenodd" d="M71.0329 17.697V48.1091H85.1826V24.5262C85.1826 21.0674 86.0211 18.2636 87.6981 16.115C89.4275 13.9663 92.2313 12.892 96.1093 12.892H100.747V0.314453H96.7382C93.3842 0.314453 90.3446 1.15295 87.6195 2.82996C84.8944 4.45456 82.9291 6.97007 81.7238 10.3765H78.4222V0.943331H63.958V15.0931H71.0329H76.9783L71.0329 17.697Z" fill="#86BCFF"/>
<path fill-rule="evenodd" clip-rule="evenodd" d="M9.04971 66.9754V15.093H16.439L6.34175 11.6971L5.71791 10.6393L4.47022 8.52354L1.97485 4.29209L0 0.943313H1.97485H16.439V8.80427H19.7406C21.4176 6.02673 23.6711 3.87807 26.501 2.35828C29.3834 0.786093 32.816 0 36.7989 0C41.7775 0 45.9438 1.04813 49.2978 3.14438C52.6518 5.18823 55.1935 8.04438 56.923 11.7128C58.6524 15.3813 59.5171 19.6524 59.5171 24.5262C59.5171 29.4 58.6786 33.6973 57.0016 37.4182C55.3246 41.0866 52.8877 43.9428 49.6909 45.9866C46.4941 48.0305 42.616 49.0524 38.0566 49.0524C34.7026 49.0524 31.8203 48.4497 29.4096 47.2444C27.0513 45.9866 25.1909 44.2572 23.8283 42.0561H23.5139V66.9754H9.04971ZM42.3016 33.2519C40.5198 35.4005 37.7684 36.4748 34.0476 36.4748C30.7984 36.4748 28.2305 35.5839 26.3438 33.8021C24.4572 31.9679 23.5139 29.4524 23.5139 26.2556V22.7968C23.5139 19.6 24.4572 17.1107 26.3438 15.3289C28.2305 13.4946 30.7984 12.5775 34.0476 12.5775C37.7684 12.5775 40.5198 13.6519 42.3016 15.8005C44.1358 17.9492 45.0529 20.8577 45.0529 24.5262C45.0529 28.1946 44.1358 31.1032 42.3016 33.2519Z" fill="#86BCFF"/>
</svg>
